<?xml version="1.0" encoding="UTF-8"?><svg xmlns="http://www.w3.org/2000/svg" xmlns:xlink="http://www.w3.org/1999/xlink" fill-opacity="1" color-rendering="auto" color-interpolation="auto" text-rendering="auto" stroke="black" stroke-linecap="square" width="1054" stroke-miterlimit="10" shape-rendering="auto" stroke-opacity="1" fill="black" stroke-dasharray="none" font-weight="normal" stroke-width="1" height="190" font-family="'Dialog'" font-style="normal" stroke-linejoin="miter" font-size="12px" stroke-dashoffset="0" image-rendering="auto">
  <!--Generated by ySVG 2.6-->
  <defs id="genericDefs"/>
  <g>
    <defs id="defs1">
      <clipPath clipPathUnits="userSpaceOnUse" id="clipPath1">
        <path d="M0 0 L1054 0 L1054 190 L0 190 L0 0 Z"/>
      </clipPath>
      <clipPath clipPathUnits="userSpaceOnUse" id="clipPath2">
        <path d="M488 855 L1015 855 L1015 950 L488 950 L488 855 Z"/>
      </clipPath>
    </defs>
    <g fill="white" text-rendering="geometricPrecision" shape-rendering="geometricPrecision" transform="scale(2,2) translate(-488,-855)" stroke="white">
      <rect x="488" width="527" height="95" y="855" clip-path="url(#clipPath2)" stroke="none"/>
    </g>
    <g fill="rgb(224,224,224)" text-rendering="geometricPrecision" shape-rendering="geometricPrecision" transform="matrix(2,0,0,2,-976,-1710)" stroke="rgb(224,224,224)">
      <rect x="675" width="153" height="29" y="888" clip-path="url(#clipPath2)" stroke="none"/>
    </g>
    <g text-rendering="geometricPrecision" stroke-miterlimit="1.45" shape-rendering="geometricPrecision" transform="matrix(2,0,0,2,-976,-1710)" stroke-linecap="butt">
      <rect fill="none" x="675" width="153" height="29" y="888" clip-path="url(#clipPath2)"/>
      <text x="691.0693" xml:space="preserve" y="906.6865" clip-path="url(#clipPath2)" font-family="'Georgia Pro'" stroke="none">AbstractTextTokenizer</text>
    </g>
    <g fill="rgb(224,224,224)" text-rendering="geometricPrecision" shape-rendering="geometricPrecision" transform="matrix(2,0,0,2,-976,-1710)" stroke="rgb(224,224,224)">
      <rect x="858" width="153" height="29" y="859" clip-path="url(#clipPath2)" stroke="none"/>
    </g>
    <g text-rendering="geometricPrecision" stroke-miterlimit="1.45" shape-rendering="geometricPrecision" transform="matrix(2,0,0,2,-976,-1710)" stroke-linecap="butt">
      <rect fill="none" x="858" width="153" height="29" y="859" clip-path="url(#clipPath2)"/>
      <text x="870.2314" xml:space="preserve" y="877.6865" clip-path="url(#clipPath2)" font-family="'Georgia Pro'" stroke="none">SentencePieceTokenizer</text>
    </g>
    <g fill="rgb(224,224,224)" text-rendering="geometricPrecision" shape-rendering="geometricPrecision" transform="matrix(2,0,0,2,-976,-1710)" stroke="rgb(224,224,224)">
      <rect x="858" width="153" height="29" y="917" clip-path="url(#clipPath2)" stroke="none"/>
    </g>
    <g text-rendering="geometricPrecision" stroke-miterlimit="1.45" shape-rendering="geometricPrecision" transform="matrix(2,0,0,2,-976,-1710)" stroke-linecap="butt">
      <rect fill="none" x="858" width="153" height="29" y="917" clip-path="url(#clipPath2)"/>
      <text x="884.458" xml:space="preserve" y="935.6865" clip-path="url(#clipPath2)" font-family="'Georgia Pro'" stroke="none">TiktokenTokenizer</text>
    </g>
    <g fill="rgb(224,224,224)" text-rendering="geometricPrecision" shape-rendering="geometricPrecision" transform="matrix(2,0,0,2,-976,-1710)" stroke="rgb(224,224,224)">
      <rect x="492" width="153" height="29" y="888" clip-path="url(#clipPath2)" stroke="none"/>
    </g>
    <g text-rendering="geometricPrecision" stroke-miterlimit="1.45" stroke-dasharray="6,2" shape-rendering="geometricPrecision" transform="matrix(2,0,0,2,-976,-1710)" stroke-linecap="butt">
      <rect fill="none" x="492" width="153" height="29" y="888" clip-path="url(#clipPath2)"/>
      <text x="530.3994" y="906.6865" clip-path="url(#clipPath2)" font-family="'Georgia Pro'" stroke-dasharray="none" stroke="none" xml:space="preserve">TextTokenizer</text>
      <path fill="none" stroke-dasharray="none" d="M828 890.3771 L850.0986 886.8751" clip-path="url(#clipPath2)"/>
      <path stroke-dasharray="none" d="M858 885.6229 L845.3653 882.5627 L849.1109 887.0316 L846.9305 892.4395 Z" clip-path="url(#clipPath2)" stroke="none"/>
      <path fill="none" stroke-dasharray="none" d="M828 914.6229 L850.0986 918.1249" clip-path="url(#clipPath2)"/>
      <path stroke-dasharray="none" d="M858 919.3771 L846.9305 912.5605 L849.1109 917.9684 L845.3653 922.4373 Z" clip-path="url(#clipPath2)" stroke="none"/>
      <path fill="none" stroke-dasharray="none" d="M645 902.5 L667 902.5" clip-path="url(#clipPath2)"/>
      <path stroke-dasharray="none" d="M675 902.5 L663 897.5 L666 902.5 L663 907.5 Z" clip-path="url(#clipPath2)" stroke="none"/>
    </g>
  </g>
</svg>
