<?xml version="1.0" encoding="UTF-8"?><svg xmlns="http://www.w3.org/2000/svg" xmlns:xlink="http://www.w3.org/1999/xlink" fill-opacity="1" color-rendering="auto" color-interpolation="auto" text-rendering="auto" stroke="black" stroke-linecap="square" width="960" stroke-miterlimit="10" shape-rendering="auto" stroke-opacity="1" fill="black" stroke-dasharray="none" font-weight="normal" stroke-width="1" height="310" font-family="'Dialog'" font-style="normal" stroke-linejoin="miter" font-size="12px" stroke-dashoffset="0" image-rendering="auto">
  <!--Generated by ySVG 2.6-->
  <defs id="genericDefs"/>
  <g>
    <defs id="defs1">
      <clipPath clipPathUnits="userSpaceOnUse" id="clipPath1">
        <path d="M0 0 L960 0 L960 310 L0 310 L0 0 Z"/>
      </clipPath>
      <clipPath clipPathUnits="userSpaceOnUse" id="clipPath2">
        <path d="M486 478 L966 478 L966 633 L486 633 L486 478 Z"/>
      </clipPath>
    </defs>
    <g fill="white" text-rendering="geometricPrecision" shape-rendering="geometricPrecision" transform="scale(2,2) translate(-486,-478)" stroke="white">
      <rect x="486" width="480" height="155" y="478" clip-path="url(#clipPath2)" stroke="none"/>
    </g>
    <g fill="rgb(224,224,224)" text-rendering="geometricPrecision" shape-rendering="geometricPrecision" transform="matrix(2,0,0,2,-972,-956)" stroke="rgb(224,224,224)">
      <rect x="490" width="106" height="29" y="541" clip-path="url(#clipPath2)" stroke="none"/>
    </g>
    <g text-rendering="geometricPrecision" stroke-miterlimit="1.45" shape-rendering="geometricPrecision" transform="matrix(2,0,0,2,-972,-956)" stroke-linecap="butt">
      <rect fill="none" x="490" width="106" height="29" y="541" clip-path="url(#clipPath2)"/>
      <text x="498.3809" xml:space="preserve" y="559.6865" clip-path="url(#clipPath2)" font-family="'Georgia Pro'" stroke="none">torch.nn.Module</text>
    </g>
    <g fill="rgb(224,224,224)" text-rendering="geometricPrecision" shape-rendering="geometricPrecision" transform="matrix(2,0,0,2,-972,-956)" stroke="rgb(224,224,224)">
      <rect x="809" width="153" height="29" y="482" clip-path="url(#clipPath2)" stroke="none"/>
    </g>
    <g text-rendering="geometricPrecision" stroke-miterlimit="1.45" shape-rendering="geometricPrecision" transform="matrix(2,0,0,2,-972,-956)" stroke-linecap="butt">
      <rect fill="none" x="809" width="153" height="29" y="482" clip-path="url(#clipPath2)"/>
      <text x="813.5322" xml:space="preserve" y="500.6865" clip-path="url(#clipPath2)" font-family="'Georgia Pro'" stroke="none">SinusoidalPositionEncoder</text>
    </g>
    <g fill="rgb(224,224,224)" text-rendering="geometricPrecision" shape-rendering="geometricPrecision" transform="matrix(2,0,0,2,-972,-956)" stroke="rgb(224,224,224)">
      <rect x="809" width="153" height="29" y="600" clip-path="url(#clipPath2)" stroke="none"/>
    </g>
    <g text-rendering="geometricPrecision" stroke-miterlimit="1.45" shape-rendering="geometricPrecision" transform="matrix(2,0,0,2,-972,-956)" stroke-linecap="butt">
      <rect fill="none" x="809" width="153" height="29" y="600" clip-path="url(#clipPath2)"/>
      <text x="845.3193" xml:space="preserve" y="618.6865" clip-path="url(#clipPath2)" font-family="'Georgia Pro'" stroke="none">RotaryEncoder</text>
    </g>
    <g fill="rgb(224,224,224)" text-rendering="geometricPrecision" shape-rendering="geometricPrecision" transform="matrix(2,0,0,2,-972,-956)" stroke="rgb(224,224,224)">
      <rect x="809" width="153" height="29" y="541" clip-path="url(#clipPath2)" stroke="none"/>
    </g>
    <g text-rendering="geometricPrecision" stroke-miterlimit="1.45" shape-rendering="geometricPrecision" transform="matrix(2,0,0,2,-972,-956)" stroke-linecap="butt">
      <rect fill="none" x="809" width="153" height="29" y="541" clip-path="url(#clipPath2)"/>
      <text x="819.5293" xml:space="preserve" y="559.6865" clip-path="url(#clipPath2)" font-family="'Georgia Pro'" stroke="none">LearnedPositionEncoder</text>
    </g>
    <g fill="rgb(224,224,224)" text-rendering="geometricPrecision" shape-rendering="geometricPrecision" transform="matrix(2,0,0,2,-972,-956)" stroke="rgb(224,224,224)">
      <rect x="626" width="153" height="29" y="541" clip-path="url(#clipPath2)" stroke="none"/>
    </g>
    <g text-rendering="geometricPrecision" stroke-miterlimit="1.45" stroke-dasharray="6,2" shape-rendering="geometricPrecision" transform="matrix(2,0,0,2,-972,-956)" stroke-linecap="butt">
      <rect fill="none" x="626" width="153" height="29" y="541" clip-path="url(#clipPath2)"/>
      <text x="658.4229" y="559.6865" clip-path="url(#clipPath2)" font-family="'Georgia Pro'" stroke-dasharray="none" stroke="none" xml:space="preserve">PositionEncoder</text>
      <path fill="none" stroke-dasharray="none" d="M596 555.5 L617.9707 555.5" clip-path="url(#clipPath2)"/>
      <path stroke-dasharray="none" d="M625.9707 555.5 L613.9707 550.5 L616.9707 555.5 L613.9707 560.5 Z" clip-path="url(#clipPath2)" stroke="none"/>
      <path fill="none" stroke-dasharray="none" d="M736.1357 541 L801.6357 512.7635" clip-path="url(#clipPath2)"/>
      <path stroke-dasharray="none" d="M808.9821 509.5966 L795.9831 509.7555 L800.7173 513.1594 L799.9418 518.9386 Z" clip-path="url(#clipPath2)" stroke="none"/>
      <path fill="none" stroke-dasharray="none" d="M779 555.5 L801 555.5" clip-path="url(#clipPath2)"/>
      <path stroke-dasharray="none" d="M809 555.5 L797 550.5 L800 555.5 L797 560.5 Z" clip-path="url(#clipPath2)" stroke="none"/>
      <path fill="none" stroke-dasharray="none" d="M736.4556 570 L801.6231 597.8284" clip-path="url(#clipPath2)"/>
      <path stroke-dasharray="none" d="M808.9803 600.9702 L799.9081 591.6592 L800.7034 597.4357 L795.9808 600.8558 Z" clip-path="url(#clipPath2)" stroke="none"/>
    </g>
  </g>
</svg>
