<svg version="1.1" id="Layer_1" xmlns="http://www.w3.org/2000/svg" xmlns:xlink="http://www.w3.org/1999/xlink" x="0px" y="0px"
	 width="100%" viewBox="0 0 1132 1126" enable-background="new 0 0 1132 1126" xml:space="preserve">
<path fill="#FFFFFF" opacity="1.000000" stroke="none" 
	d="
M1133.000000,415.000000 
	C1133.000000,652.640442 1133.000000,889.780823 1133.000000,1126.960693 
	C755.734680,1126.960693 378.469299,1126.960693 1.101970,1126.960693 
	C1.101970,751.776184 1.101970,376.552338 1.101970,1.164252 
	C378.333282,1.164252 755.666626,1.164252 1133.000000,1.164252 
	C1133.000000,138.864136 1133.000000,276.682068 1133.000000,415.000000 
M491.500000,454.000214 
	C457.755981,454.000214 424.011963,454.000214 390.420715,454.000214 
	C390.420715,585.106262 390.420715,715.461792 390.420715,845.713135 
	C528.744446,845.713135 666.647461,845.713135 804.667908,845.713135 
	C804.667908,715.070435 804.667908,584.714783 804.667908,454.000214 
	C700.390808,454.000214 596.445435,454.000214 491.500000,454.000214 
M947.357544,536.850403 
	C984.190247,515.259949 1020.310852,492.627594 1052.111938,463.840851 
	C1068.517090,448.990662 1083.300537,432.740997 1092.394531,412.206238 
	C1104.006592,385.985443 1102.425781,360.994781 1084.238525,338.052612 
	C1075.857910,327.481079 1065.305664,319.367767 1053.549194,312.802429 
	C1027.221436,298.099854 998.530151,290.251282 969.321167,284.073242 
	C917.734741,273.162079 865.372253,268.204285 812.848450,265.357330 
	C771.443604,263.113068 729.962585,261.655365 688.501221,261.228363 
	C638.353394,260.711853 588.189148,261.511566 538.034912,262.022736 
	C516.383789,262.243408 494.733734,263.005188 473.093872,263.808655 
	C430.485077,265.390686 387.876923,267.021210 345.281586,268.924255 
	C314.341003,270.306610 283.413330,272.021393 252.494385,273.834900 
	C207.282761,276.486694 162.082550,279.334961 116.881165,282.158447 
	C107.293602,282.757263 97.721909,283.609955 87.528488,284.392853 
	C88.924919,304.484924 90.289909,324.124695 91.687378,344.231842 
	C101.119904,343.504272 109.722336,342.748260 118.337662,342.191895 
	C160.374359,339.477112 202.408020,336.708282 244.455597,334.171326 
	C274.872925,332.336060 305.301941,330.654724 335.740845,329.226959 
	C375.336700,327.369659 414.939331,325.595856 454.554199,324.224640 
	C491.847748,322.933807 529.155762,321.768921 566.466614,321.332672 
	C644.108582,320.424835 721.746643,320.277649 799.323792,324.734680 
	C841.553406,327.160919 883.671875,330.546143 925.487305,337.039124 
	C952.306641,341.203522 979.037170,346.114929 1004.357727,356.185547 
	C1014.605286,360.261292 1024.340698,365.964233 1033.646973,371.955383 
	C1040.633545,376.453186 1041.046753,380.747253 1037.345581,388.332581 
	C1035.676147,391.754059 1033.672241,395.068329 1031.424316,398.141846 
	C1021.792969,411.310364 1009.608093,421.941132 996.950195,432.030914 
	C968.203369,454.945496 936.847046,473.886261 904.899597,491.881012 
	C901.791626,493.631622 900.903809,495.544678 900.928650,498.908142 
	C901.072632,518.406006 900.994568,537.905518 901.008484,557.404480 
	C901.009521,558.817017 901.143799,560.229492 901.265137,562.597168 
	C916.860413,553.872192 931.782166,545.524048 947.357544,536.850403 
M218.656433,832.121887 
	C238.562103,823.240601 258.439148,814.293762 278.407074,805.554749 
	C281.129120,804.363464 282.098572,803.009277 282.069366,800.051453 
	C281.921295,785.055725 282.001190,770.057739 282.001190,755.060547 
	C282.001190,749.956787 282.001190,744.853027 282.001190,739.089539 
	C276.769135,741.228210 272.166779,743.075745 267.590393,744.985413 
	C217.795944,765.764771 168.486771,787.569214 122.129395,815.421875 
	C98.657867,829.524292 76.044281,844.831055 57.821106,865.669434 
	C45.822224,879.390259 37.022045,894.782593 36.231270,913.431274 
	C35.252193,936.520447 46.309975,953.958740 63.798412,967.783569 
	C78.614944,979.496216 95.717384,986.925903 113.446022,992.953918 
	C155.403931,1007.220459 198.852997,1014.750671 242.668488,1019.718628 
	C285.973846,1024.628784 329.427826,1028.470947 372.903229,1031.564331 
	C409.931061,1034.198853 447.070953,1035.434692 484.181793,1036.675781 
	C518.643311,1037.828369 553.131409,1038.715332 587.608887,1038.755371 
	C661.921082,1038.841675 736.234436,1038.395142 810.546326,1037.983032 
	C836.867737,1037.837158 863.186951,1037.197388 889.505493,1036.694458 
	C896.252808,1036.565674 902.993774,1036.100098 908.979553,1035.824219 
	C908.979553,1015.641479 908.979553,996.063477 908.979553,976.771729 
	C900.729614,976.771729 893.435181,976.674133 886.144104,976.787903 
	C844.166321,977.442993 802.191528,978.484009 760.211487,978.768066 
	C665.578003,979.408508 570.938049,979.831848 476.345184,976.148987 
	C441.240051,974.782227 406.097778,973.663574 371.075653,971.048950 
	C327.782196,967.816772 284.541138,963.648621 241.381790,958.929932 
	C208.800659,955.367859 176.560654,949.384216 145.055496,940.041199 
	C130.192673,935.633545 115.500168,930.716003 102.591270,921.779358 
	C95.430138,916.821777 94.666046,914.671631 100.569717,908.459473 
	C108.785805,899.813843 117.426590,891.333557 126.959923,884.222900 
	C155.113907,863.223572 186.507568,847.720825 218.656433,832.121887 
M903.392517,172.839386 
	C904.436279,166.961624 905.971619,161.121994 906.431091,155.198914 
	C907.778442,137.827316 907.443054,120.543312 899.982117,104.294861 
	C893.422974,90.010475 882.165588,82.770813 866.343323,83.047096 
	C850.672058,83.320740 839.535645,90.926903 833.967712,105.318466 
	C824.351807,130.172806 824.421753,155.510025 833.688477,180.395950 
	C839.550110,196.137238 851.584351,203.461395 868.256775,202.955627 
	C871.888123,202.845444 873.015747,204.144608 874.103882,207.209122 
	C879.312561,221.878357 894.698792,225.812546 909.895569,219.279465 
	C909.145325,216.125702 908.387573,212.940491 907.607849,209.662827 
	C904.688232,209.885117 902.064941,210.163879 899.434692,210.269775 
	C892.498840,210.549011 888.859192,208.139786 886.853455,201.501724 
	C886.465881,200.218903 887.024048,197.830109 888.006348,197.083145 
	C895.932861,191.055969 900.414001,182.923553 903.392517,172.839386 
M589.438171,169.009781 
	C584.355164,161.329483 579.272156,153.649185 574.014832,145.705551 
	C576.122131,144.928055 577.364319,144.467865 578.607849,144.011261 
	C592.965942,138.739105 601.312805,126.133453 599.758667,112.067780 
	C598.136230,97.384422 588.185974,87.543594 572.167847,86.018707 
	C562.092102,85.059525 551.894531,85.363983 541.750732,85.142578 
	C538.493042,85.071465 535.232544,85.131432 531.715210,85.131432 
	C531.715210,124.086197 531.715210,162.306137 531.715210,200.670380 
	C536.221436,200.670380 540.438904,200.670380 545.129883,200.670380 
	C545.129883,183.261993 545.129883,166.181137 545.129883,148.582947 
	C548.059509,148.582947 550.564270,148.892212 552.963318,148.520020 
	C558.327026,147.687912 561.273804,150.001648 564.066345,154.543274 
	C573.041931,169.140381 582.525940,183.426376 591.928955,197.756836 
	C592.816101,199.108826 594.444275,200.729156 595.846680,200.849716 
	C600.413025,201.242325 605.034180,200.996704 610.735352,200.996704 
	C603.406982,189.966187 596.637939,179.777451 589.438171,169.009781 
M979.491394,976.000000 
	C964.092102,976.000000 948.692871,976.000000 933.403564,976.000000 
	C933.403564,996.410828 933.403564,1016.100586 933.403564,1035.728638 
	C953.379761,1035.728638 972.951172,1035.728638 992.684387,1035.728638 
	C992.684387,1015.767395 992.684387,996.078735 992.684387,976.000000 
	C988.414917,976.000000 984.451355,976.000000 979.491394,976.000000 
M347.820251,108.262848 
	C337.755768,138.972641 327.691284,169.682434 317.425385,201.006882 
	C321.220215,201.006882 324.069611,200.719879 326.835846,201.076904 
	C330.600159,201.562729 332.004547,199.849350 333.010040,196.490997 
	C336.204224,185.822342 339.807434,175.276367 343.025269,164.614380 
	C343.954620,161.535095 345.440002,160.502213 348.660217,160.574341 
	C358.315369,160.790588 367.982513,160.811493 377.636444,160.569412 
	C381.228302,160.479340 382.859070,161.553284 383.902679,165.107040 
	C387.411713,177.056137 391.324982,188.886505 395.080963,200.754089 
	C399.827332,200.754089 404.256348,200.754089 409.058655,200.754089 
	C408.518494,198.851151 408.125549,197.261353 407.618011,195.709045 
	C396.819458,162.683350 386.008667,129.661621 375.198792,96.639626 
	C371.273010,84.647102 371.264893,84.536423 358.678070,85.269745 
	C357.108826,85.361168 354.850342,87.071381 354.282318,88.556053 
	C351.909424,94.758682 350.059875,101.161522 347.820251,108.262848 
M767.500000,201.013138 
	C777.427002,201.013138 787.354065,201.013138 797.383179,201.013138 
	C797.383179,196.749481 797.383179,193.179031 797.383179,188.915070 
	C781.695312,188.915070 766.330322,188.915070 751.176575,188.915070 
	C751.176575,173.822327 751.176575,159.432373 751.176575,144.473267 
	C766.029846,144.473267 780.425659,144.473267 794.736755,144.473267 
	C794.736755,140.322296 794.736755,136.760818 794.736755,132.689697 
	C779.921875,132.689697 765.505066,132.689697 751.056824,132.689697 
	C751.056824,120.595512 751.056824,109.026093 751.056824,96.934692 
	C766.463013,96.934692 781.535278,96.934692 796.752747,96.934692 
	C796.752747,92.826744 796.752747,89.248596 796.752747,85.491440 
	C776.779114,85.491440 757.078918,85.491440 737.325989,85.491440 
	C737.325989,124.098190 737.325989,162.332199 737.325989,201.013138 
	C747.247925,201.013138 756.873962,201.013138 767.500000,201.013138 
M694.153992,151.424179 
	C688.712036,146.909058 683.645569,141.807053 677.734558,138.024948 
	C670.065918,133.118271 661.259766,129.936142 653.793152,124.780724 
	C644.822815,118.587097 644.449951,106.685257 652.813660,100.478790 
	C656.730713,97.572021 662.075073,95.434639 666.896545,95.164963 
	C674.556091,94.736549 682.319458,96.165291 690.653625,96.859657 
	C691.352112,94.099220 692.263489,90.497108 693.248352,86.604774 
	C680.268494,82.668755 667.657593,81.303665 655.041382,85.412178 
	C646.364075,88.237961 639.253235,93.419525 635.936279,102.395363 
	C630.496460,117.115524 636.026001,130.870056 650.457031,138.509750 
	C658.244324,142.632309 666.317932,146.221176 674.043274,150.451035 
	C679.239319,153.296036 683.394165,157.368484 685.053223,163.423950 
	C689.463074,179.518784 676.957336,193.389801 659.248352,191.413162 
	C651.948975,190.598434 644.808594,188.358719 637.305359,186.703018 
	C636.549683,189.943756 635.729919,193.459106 634.779785,197.533691 
	C651.453857,204.259796 667.801514,206.643616 683.680786,196.625626 
	C699.132629,186.877304 703.598022,167.462677 694.153992,151.424179 
M232.994110,111.500000 
	C232.994110,141.243576 232.994110,170.987167 232.994110,200.757690 
	C237.841660,200.757690 241.946167,200.757690 246.656021,200.757690 
	C246.656021,182.788467 246.656021,165.055084 246.656021,146.750198 
	C261.322723,146.750198 275.396790,146.750198 289.628448,146.750198 
	C289.628448,142.475754 289.628448,138.792725 289.628448,134.585312 
	C275.138092,134.585312 261.063507,134.585312 247.017365,134.585312 
	C247.017365,121.830009 247.017365,109.610237 247.017365,96.865814 
	C262.968475,96.865814 278.532013,96.865814 294.148590,96.865814 
	C294.148590,92.745941 294.148590,89.164032 294.148590,85.397858 
	C273.702362,85.397858 253.624802,85.397858 232.994110,85.397858 
	C232.994110,93.936607 232.994110,102.218300 232.994110,111.500000 
M470.743011,124.500031 
	C470.743011,115.427711 470.743011,106.355392 470.743011,96.863533 
	C477.536987,96.863533 483.470673,96.863533 489.602997,96.863533 
	C489.602997,92.843719 489.602997,89.272285 489.602997,85.410332 
	C472.092438,85.410332 454.864838,85.410332 437.485687,85.410332 
	C437.485687,89.389671 437.485687,93.081955 437.485687,97.222458 
	C444.157257,97.222458 450.419464,97.222458 456.645691,97.222458 
	C456.645691,128.067337 456.645691,158.455704 456.645691,189.335236 
	C449.999664,189.335236 443.741425,189.335236 437.379456,189.335236 
	C437.379456,193.408371 437.379456,196.983658 437.379456,200.714371 
	C454.921967,200.714371 472.156799,200.714371 489.596649,200.714371 
	C489.596649,196.841171 489.596649,193.270569 489.596649,189.052826 
	C483.270935,189.052826 477.208893,189.052826 470.742645,189.052826 
	C470.742645,167.437317 470.742645,146.468674 470.743011,124.500031 
z"/>
<path fill="#44A2F8" opacity="1.000000" stroke="none" 
	d="
M492.000000,454.000214 
	C596.445435,454.000214 700.390808,454.000214 804.667908,454.000214 
	C804.667908,584.714783 804.667908,715.070435 804.667908,845.713135 
	C666.647461,845.713135 528.744446,845.713135 390.420715,845.713135 
	C390.420715,715.461792 390.420715,585.106262 390.420715,454.000214 
	C424.011963,454.000214 457.755981,454.000214 492.000000,454.000214 
M700.500000,786.000000 
	C715.248718,786.000000 729.997437,786.000000 744.574280,786.000000 
	C744.574280,694.888428 744.574280,604.534119 744.574280,514.289978 
	C646.246216,514.289978 548.344116,514.289978 450.335571,514.289978 
	C450.335571,604.936523 450.335571,695.292725 450.335571,786.000000 
	C533.613770,786.000000 616.556885,786.000000 700.500000,786.000000 
z"/>
<path fill="#45A2F8" opacity="1.000000" stroke="none" 
	d="
M947.030701,537.013184 
	C931.782166,545.524048 916.860413,553.872192 901.265137,562.597168 
	C901.143799,560.229492 901.009521,558.817017 901.008484,557.404480 
	C900.994568,537.905518 901.072632,518.406006 900.928650,498.908142 
	C900.903809,495.544678 901.791626,493.631622 904.899597,491.881012 
	C936.847046,473.886261 968.203369,454.945496 996.950195,432.030914 
	C1009.608093,421.941132 1021.792969,411.310364 1031.424316,398.141846 
	C1033.672241,395.068329 1035.676147,391.754059 1037.345581,388.332581 
	C1041.046753,380.747253 1040.633545,376.453186 1033.646973,371.955383 
	C1024.340698,365.964233 1014.605286,360.261292 1004.357727,356.185547 
	C979.037170,346.114929 952.306641,341.203522 925.487305,337.039124 
	C883.671875,330.546143 841.553406,327.160919 799.323792,324.734680 
	C721.746643,320.277649 644.108582,320.424835 566.466614,321.332672 
	C529.155762,321.768921 491.847748,322.933807 454.554199,324.224640 
	C414.939331,325.595856 375.336700,327.369659 335.740845,329.226959 
	C305.301941,330.654724 274.872925,332.336060 244.455597,334.171326 
	C202.408020,336.708282 160.374359,339.477112 118.337662,342.191895 
	C109.722336,342.748260 101.119904,343.504272 91.687378,344.231842 
	C90.289909,324.124695 88.924919,304.484924 87.528488,284.392853 
	C97.721909,283.609955 107.293602,282.757263 116.881165,282.158447 
	C162.082550,279.334961 207.282761,276.486694 252.494385,273.834900 
	C283.413330,272.021393 314.341003,270.306610 345.281586,268.924255 
	C387.876923,267.021210 430.485077,265.390686 473.093872,263.808655 
	C494.733734,263.005188 516.383789,262.243408 538.034912,262.022736 
	C588.189148,261.511566 638.353394,260.711853 688.501221,261.228363 
	C729.962585,261.655365 771.443604,263.113068 812.848450,265.357330 
	C865.372253,268.204285 917.734741,273.162079 969.321167,284.073242 
	C998.530151,290.251282 1027.221436,298.099854 1053.549194,312.802429 
	C1065.305664,319.367767 1075.857910,327.481079 1084.238525,338.052612 
	C1102.425781,360.994781 1104.006592,385.985443 1092.394531,412.206238 
	C1083.300537,432.740997 1068.517090,448.990662 1052.111938,463.840851 
	C1020.310852,492.627594 984.190247,515.259949 947.030701,537.013184 
z"/>
<path fill="#45A2F8" opacity="1.000000" stroke="none" 
	d="
M218.322205,832.290527 
	C186.507568,847.720825 155.113907,863.223572 126.959923,884.222900 
	C117.426590,891.333557 108.785805,899.813843 100.569717,908.459473 
	C94.666046,914.671631 95.430138,916.821777 102.591270,921.779358 
	C115.500168,930.716003 130.192673,935.633545 145.055496,940.041199 
	C176.560654,949.384216 208.800659,955.367859 241.381790,958.929932 
	C284.541138,963.648621 327.782196,967.816772 371.075653,971.048950 
	C406.097778,973.663574 441.240051,974.782227 476.345184,976.148987 
	C570.938049,979.831848 665.578003,979.408508 760.211487,978.768066 
	C802.191528,978.484009 844.166321,977.442993 886.144104,976.787903 
	C893.435181,976.674133 900.729614,976.771729 908.979553,976.771729 
	C908.979553,996.063477 908.979553,1015.641479 908.979553,1035.824219 
	C902.993774,1036.100098 896.252808,1036.565674 889.505493,1036.694458 
	C863.186951,1037.197388 836.867737,1037.837158 810.546326,1037.983032 
	C736.234436,1038.395142 661.921082,1038.841675 587.608887,1038.755371 
	C553.131409,1038.715332 518.643311,1037.828369 484.181793,1036.675781 
	C447.070953,1035.434692 409.931061,1034.198853 372.903229,1031.564331 
	C329.427826,1028.470947 285.973846,1024.628784 242.668488,1019.718628 
	C198.852997,1014.750671 155.403931,1007.220459 113.446022,992.953918 
	C95.717384,986.925903 78.614944,979.496216 63.798412,967.783569 
	C46.309975,953.958740 35.252193,936.520447 36.231270,913.431274 
	C37.022045,894.782593 45.822224,879.390259 57.821106,865.669434 
	C76.044281,844.831055 98.657867,829.524292 122.129395,815.421875 
	C168.486771,787.569214 217.795944,765.764771 267.590393,744.985413 
	C272.166779,743.075745 276.769135,741.228210 282.001190,739.089539 
	C282.001190,744.853027 282.001190,749.956787 282.001190,755.060547 
	C282.001190,770.057739 281.921295,785.055725 282.069366,800.051453 
	C282.098572,803.009277 281.129120,804.363464 278.407074,805.554749 
	C258.439148,814.293762 238.562103,823.240601 218.322205,832.290527 
z"/>
<path fill="#48A4F8" opacity="1.000000" stroke="none" 
	d="
M903.264221,173.221970 
	C900.414001,182.923553 895.932861,191.055969 888.006348,197.083145 
	C887.024048,197.830109 886.465881,200.218903 886.853455,201.501724 
	C888.859192,208.139786 892.498840,210.549011 899.434692,210.269775 
	C902.064941,210.163879 904.688232,209.885117 907.607849,209.662827 
	C908.387573,212.940491 909.145325,216.125702 909.895569,219.279465 
	C894.698792,225.812546 879.312561,221.878357 874.103882,207.209122 
	C873.015747,204.144608 871.888123,202.845444 868.256775,202.955627 
	C851.584351,203.461395 839.550110,196.137238 833.688477,180.395950 
	C824.421753,155.510025 824.351807,130.172806 833.967712,105.318466 
	C839.535645,90.926903 850.672058,83.320740 866.343323,83.047096 
	C882.165588,82.770813 893.422974,90.010475 899.982117,104.294861 
	C907.443054,120.543312 907.778442,137.827316 906.431091,155.198914 
	C905.971619,161.121994 904.436279,166.961624 903.264221,173.221970 
M841.940918,135.627701 
	C841.623169,149.786942 841.371643,163.952805 847.395447,177.263275 
	C851.257568,185.797180 857.353149,191.241776 867.311707,191.182770 
	C877.227966,191.124023 883.525208,185.820679 887.106445,177.132141 
	C893.917419,160.607742 893.584839,143.255707 891.343628,126.058823 
	C890.362122,118.527832 887.949707,110.603806 884.044312,104.156181 
	C876.331604,91.423073 858.479065,91.895973 850.197998,104.261108 
	C844.044739,113.448997 842.729980,123.995285 841.940918,135.627701 
z"/>
<path fill="#46A3F8" opacity="1.000000" stroke="none" 
	d="
M589.653503,169.299255 
	C596.637939,179.777451 603.406982,189.966187 610.735352,200.996704 
	C605.034180,200.996704 600.413025,201.242325 595.846680,200.849716 
	C594.444275,200.729156 592.816101,199.108826 591.928955,197.756836 
	C582.525940,183.426376 573.041931,169.140381 564.066345,154.543274 
	C561.273804,150.001648 558.327026,147.687912 552.963318,148.520020 
	C550.564270,148.892212 548.059509,148.582947 545.129883,148.582947 
	C545.129883,166.181137 545.129883,183.261993 545.129883,200.670380 
	C540.438904,200.670380 536.221436,200.670380 531.715210,200.670380 
	C531.715210,162.306137 531.715210,124.086197 531.715210,85.131432 
	C535.232544,85.131432 538.493042,85.071465 541.750732,85.142578 
	C551.894531,85.363983 562.092102,85.059525 572.167847,86.018707 
	C588.185974,87.543594 598.136230,97.384422 599.758667,112.067780 
	C601.312805,126.133453 592.965942,138.739105 578.607849,144.011261 
	C577.364319,144.467865 576.122131,144.928055 574.014832,145.705551 
	C579.272156,153.649185 584.355164,161.329483 589.653503,169.299255 
M563.938354,136.661392 
	C565.584717,136.422348 567.242371,136.242935 568.875610,135.934402 
	C578.372620,134.140259 585.379517,126.593666 585.921021,117.617867 
	C586.502197,107.985512 582.202087,100.321243 573.376221,98.674568 
	C564.231873,96.968498 554.745300,97.097404 545.341309,96.418877 
	C545.341309,110.593391 545.341309,123.482185 545.341309,136.758072 
	C551.454895,136.758072 557.245728,136.758072 563.938354,136.661392 
z"/>
<path fill="#44A1F8" opacity="1.000000" stroke="none" 
	d="
M979.989624,976.000000 
	C984.451355,976.000000 988.414917,976.000000 992.684387,976.000000 
	C992.684387,996.078735 992.684387,1015.767395 992.684387,1035.728638 
	C972.951172,1035.728638 953.379761,1035.728638 933.403564,1035.728638 
	C933.403564,1016.100586 933.403564,996.410828 933.403564,976.000000 
	C948.692871,976.000000 964.092102,976.000000 979.989624,976.000000 
z"/>
<path fill="#47A3F8" opacity="1.000000" stroke="none" 
	d="
M347.919373,107.876907 
	C350.059875,101.161522 351.909424,94.758682 354.282318,88.556053 
	C354.850342,87.071381 357.108826,85.361168 358.678070,85.269745 
	C371.264893,84.536423 371.273010,84.647102 375.198792,96.639626 
	C386.008667,129.661621 396.819458,162.683350 407.618011,195.709045 
	C408.125549,197.261353 408.518494,198.851151 409.058655,200.754089 
	C404.256348,200.754089 399.827332,200.754089 395.080963,200.754089 
	C391.324982,188.886505 387.411713,177.056137 383.902679,165.107040 
	C382.859070,161.553284 381.228302,160.479340 377.636444,160.569412 
	C367.982513,160.811493 358.315369,160.790588 348.660217,160.574341 
	C345.440002,160.502213 343.954620,161.535095 343.025269,164.614380 
	C339.807434,175.276367 336.204224,185.822342 333.010040,196.490997 
	C332.004547,199.849350 330.600159,201.562729 326.835846,201.076904 
	C324.069611,200.719879 321.220215,201.006882 317.425385,201.006882 
	C327.691284,169.682434 337.755768,138.972641 347.919373,107.876907 
M350.078888,148.768585 
	C359.309753,148.768585 368.540619,148.768585 378.531036,148.768585 
	C373.448792,132.745209 368.628754,117.548470 363.808716,102.351723 
	C358.879547,115.017708 354.861908,127.650574 350.970764,140.322311 
	C350.164398,142.948196 349.828094,145.718430 350.078888,148.768585 
z"/>
<path fill="#4AA5F8" opacity="1.000000" stroke="none" 
	d="
M767.000000,201.013138 
	C756.873962,201.013138 747.247925,201.013138 737.325989,201.013138 
	C737.325989,162.332199 737.325989,124.098190 737.325989,85.491440 
	C757.078918,85.491440 776.779114,85.491440 796.752747,85.491440 
	C796.752747,89.248596 796.752747,92.826744 796.752747,96.934692 
	C781.535278,96.934692 766.463013,96.934692 751.056824,96.934692 
	C751.056824,109.026093 751.056824,120.595512 751.056824,132.689697 
	C765.505066,132.689697 779.921875,132.689697 794.736755,132.689697 
	C794.736755,136.760818 794.736755,140.322296 794.736755,144.473267 
	C780.425659,144.473267 766.029846,144.473267 751.176575,144.473267 
	C751.176575,159.432373 751.176575,173.822327 751.176575,188.915070 
	C766.330322,188.915070 781.695312,188.915070 797.383179,188.915070 
	C797.383179,193.179031 797.383179,196.749481 797.383179,201.013138 
	C787.354065,201.013138 777.427002,201.013138 767.000000,201.013138 
z"/>
<path fill="#48A4F8" opacity="1.000000" stroke="none" 
	d="
M694.352417,151.730896 
	C703.598022,167.462677 699.132629,186.877304 683.680786,196.625626 
	C667.801514,206.643616 651.453857,204.259796 634.779785,197.533691 
	C635.729919,193.459106 636.549683,189.943756 637.305359,186.703018 
	C644.808594,188.358719 651.948975,190.598434 659.248352,191.413162 
	C676.957336,193.389801 689.463074,179.518784 685.053223,163.423950 
	C683.394165,157.368484 679.239319,153.296036 674.043274,150.451035 
	C666.317932,146.221176 658.244324,142.632309 650.457031,138.509750 
	C636.026001,130.870056 630.496460,117.115524 635.936279,102.395363 
	C639.253235,93.419525 646.364075,88.237961 655.041382,85.412178 
	C667.657593,81.303665 680.268494,82.668755 693.248352,86.604774 
	C692.263489,90.497108 691.352112,94.099220 690.653625,96.859657 
	C682.319458,96.165291 674.556091,94.736549 666.896545,95.164963 
	C662.075073,95.434639 656.730713,97.572021 652.813660,100.478790 
	C644.449951,106.685257 644.822815,118.587097 653.793152,124.780724 
	C661.259766,129.936142 670.065918,133.118271 677.734558,138.024948 
	C683.645569,141.807053 688.712036,146.909058 694.352417,151.730896 
z"/>
<path fill="#47A3F8" opacity="1.000000" stroke="none" 
	d="
M232.994110,111.000000 
	C232.994110,102.218300 232.994110,93.936607 232.994110,85.397858 
	C253.624802,85.397858 273.702362,85.397858 294.148590,85.397858 
	C294.148590,89.164032 294.148590,92.745941 294.148590,96.865814 
	C278.532013,96.865814 262.968475,96.865814 247.017365,96.865814 
	C247.017365,109.610237 247.017365,121.830009 247.017365,134.585312 
	C261.063507,134.585312 275.138092,134.585312 289.628448,134.585312 
	C289.628448,138.792725 289.628448,142.475754 289.628448,146.750198 
	C275.396790,146.750198 261.322723,146.750198 246.656021,146.750198 
	C246.656021,165.055084 246.656021,182.788467 246.656021,200.757690 
	C241.946167,200.757690 237.841660,200.757690 232.994110,200.757690 
	C232.994110,170.987167 232.994110,141.243576 232.994110,111.000000 
z"/>
<path fill="#4AA5F8" opacity="1.000000" stroke="none" 
	d="
M470.742828,125.000038 
	C470.742645,146.468674 470.742645,167.437317 470.742645,189.052826 
	C477.208893,189.052826 483.270935,189.052826 489.596649,189.052826 
	C489.596649,193.270569 489.596649,196.841171 489.596649,200.714371 
	C472.156799,200.714371 454.921967,200.714371 437.379456,200.714371 
	C437.379456,196.983658 437.379456,193.408371 437.379456,189.335236 
	C443.741425,189.335236 449.999664,189.335236 456.645691,189.335236 
	C456.645691,158.455704 456.645691,128.067337 456.645691,97.222458 
	C450.419464,97.222458 444.157257,97.222458 437.485687,97.222458 
	C437.485687,93.081955 437.485687,89.389671 437.485687,85.410332 
	C454.864838,85.410332 472.092438,85.410332 489.602997,85.410332 
	C489.602997,89.272285 489.602997,92.843719 489.602997,96.863533 
	C483.470673,96.863533 477.536987,96.863533 470.743011,96.863533 
	C470.743011,106.355392 470.743011,115.427711 470.742828,125.000038 
z"/>
<path fill="#FFFFFF" opacity="1.000000" stroke="none" 
	d="
M700.000000,786.000000 
	C616.556885,786.000000 533.613770,786.000000 450.335571,786.000000 
	C450.335571,695.292725 450.335571,604.936523 450.335571,514.289978 
	C548.344116,514.289978 646.246216,514.289978 744.574280,514.289978 
	C744.574280,604.534119 744.574280,694.888428 744.574280,786.000000 
	C729.997437,786.000000 715.248718,786.000000 700.000000,786.000000 
z"/>
<path fill="#FEFEFF" opacity="1.000000" stroke="none" 
	d="
M841.951660,135.147369 
	C842.729980,123.995285 844.044739,113.448997 850.197998,104.261108 
	C858.479065,91.895973 876.331604,91.423073 884.044312,104.156181 
	C887.949707,110.603806 890.362122,118.527832 891.343628,126.058823 
	C893.584839,143.255707 893.917419,160.607742 887.106445,177.132141 
	C883.525208,185.820679 877.227966,191.124023 867.311707,191.182770 
	C857.353149,191.241776 851.257568,185.797180 847.395447,177.263275 
	C841.371643,163.952805 841.623169,149.786942 841.951660,135.147369 
z"/>
<path fill="#FDFEFF" opacity="1.000000" stroke="none" 
	d="
M563.487427,136.709732 
	C557.245728,136.758072 551.454895,136.758072 545.341309,136.758072 
	C545.341309,123.482185 545.341309,110.593391 545.341309,96.418877 
	C554.745300,97.097404 564.231873,96.968498 573.376221,98.674568 
	C582.202087,100.321243 586.502197,107.985512 585.921021,117.617867 
	C585.379517,126.593666 578.372620,134.140259 568.875610,135.934402 
	C567.242371,136.242935 565.584717,136.422348 563.487427,136.709732 
z"/>
<path fill="#FAFDFF" opacity="1.000000" stroke="none" 
	d="
M349.677002,148.595367 
	C349.828094,145.718430 350.164398,142.948196 350.970764,140.322311 
	C354.861908,127.650574 358.879547,115.017708 363.808716,102.351723 
	C368.628754,117.548470 373.448792,132.745209 378.531036,148.768585 
	C368.540619,148.768585 359.309753,148.768585 349.677002,148.595367 
z"/>
</svg>